# Blender v2.90.1 OBJ File: 'quad1.blend'
# www.blender.org
mtllib quad1.mtl
o Plane
v -10.137263 0.000000 9.919925
v 9.702587 0.000000 9.919925
v -10.137263 0.000000 -9.919925
v 9.702587 0.000000 -9.919925
v -10.137263 0.000000 0.000000
v 9.702587 0.000000 0.000000
v -0.217338 0.000000 9.919925
v -0.217338 0.000000 -9.919925
v -0.217338 0.000000 0.000000
v 9.702587 0.000000 -4.959962
v -10.137263 0.000000 -4.959962
v -0.217338 0.000000 -4.959962
v -10.137263 0.000000 4.959962
v 9.702587 0.000000 4.959962
v -0.217338 0.000000 4.959962
v -5.177300 0.000000 -9.919925
v -5.177300 0.000000 0.000000
v -5.177300 0.000000 9.919925
v -5.177300 0.000000 -4.959962
v -5.177300 0.000000 4.959962
v 4.742625 0.000000 9.919925
v 4.742625 0.000000 -9.919925
v 4.742625 0.000000 0.000000
v 4.742625 0.000000 -4.959962
v 4.742625 0.000000 4.959962
v -10.137263 0.000000 7.439944
v 9.702587 0.000000 7.439944
v -0.217338 0.000000 7.439944
v -5.177300 0.000000 7.439944
v 4.742625 0.000000 7.439944
v 9.702587 0.000000 2.479981
v -0.217338 0.000000 2.479981
v -10.137263 0.000000 2.479981
v -5.177300 0.000000 2.479981
v 4.742625 0.000000 2.479981
v -10.137263 0.000000 -2.479981
v 9.702587 0.000000 -2.479981
v -0.217338 0.000000 -2.479981
v -5.177300 0.000000 -2.479981
v 4.742625 0.000000 -2.479981
v 9.702587 0.000000 -7.439944
v -0.217338 0.000000 -7.439944
v -10.137263 0.000000 -7.439944
v -5.177300 0.000000 -7.439944
v 4.742625 0.000000 -7.439944
v -7.657282 0.000000 -9.919925
v -7.657282 0.000000 0.000000
v -7.657282 0.000000 -4.959962
v -7.657282 0.000000 4.959962
v -7.657282 0.000000 9.919925
v -7.657282 0.000000 7.439944
v -7.657282 0.000000 2.479981
v -7.657282 0.000000 -2.479981
v -7.657282 0.000000 -7.439944
v -2.697319 0.000000 9.919925
v -2.697319 0.000000 -9.919925
v -2.697319 0.000000 0.000000
v -2.697319 0.000000 -4.959962
v -2.697319 0.000000 4.959962
v -2.697319 0.000000 7.439944
v -2.697319 0.000000 2.479981
v -2.697319 0.000000 -2.479981
v -2.697319 0.000000 -7.439944
v 2.262643 0.000000 -9.919925
v 2.262643 0.000000 0.000000
v 2.262643 0.000000 -4.959962
v 2.262643 0.000000 4.959962
v 2.262643 0.000000 9.919925
v 2.262643 0.000000 7.439944
v 2.262643 0.000000 2.479981
v 2.262643 0.000000 -2.479981
v 2.262643 0.000000 -7.439944
v 7.222606 0.000000 9.919925
v 7.222606 0.000000 -9.919925
v 7.222606 0.000000 0.000000
v 7.222606 0.000000 -4.959962
v 7.222606 0.000000 4.959962
v 7.222606 0.000000 7.439944
v 7.222606 0.000000 2.479981
v 7.222606 0.000000 -2.479981
v 7.222606 0.000000 -7.439944
vt 0.339373 0.347309
vt 0.011214 0.347309
vt 0.011215 0.019150
vt 0.339373 0.019151
vt 0.687845 0.670252
vt 0.354848 0.670252
vt 0.354848 0.337255
vt 0.687845 0.337255
vt 0.678073 0.655850
vt 0.364357 0.655850
vt 0.364357 0.342133
vt 0.678074 0.342133
vt 0.672726 0.649047
vt 0.363355 0.649046
vt 0.363356 0.339676
vt 0.672726 0.339676
vt 0.676321 0.667656
vt 0.359760 0.667656
vt 0.359760 0.351095
vt 0.676321 0.351095
vt 0.671556 0.653235
vt 0.364788 0.653234
vt 0.364788 0.346467
vt 0.671556 0.346467
vt 0.311973 0.328576
vt 0.028826 0.328575
vt 0.028826 0.045427
vt 0.311973 0.045428
vt 0.312444 0.344789
vt 0.015918 0.344788
vt 0.015918 0.048263
vt 0.312444 0.048263
vt 0.296045 0.313507
vt 0.046210 0.313507
vt 0.046210 0.063671
vt 0.296045 0.063671
vt 0.321911 0.336330
vt 0.017169 0.336330
vt 0.017169 0.031587
vt 0.321911 0.031588
vt 0.339537 0.345291
vt 0.015418 0.345290
vt 0.015418 0.021171
vt 0.339537 0.021172
vt 0.313927 0.317962
vt 0.041027 0.317962
vt 0.041027 0.045061
vt 0.313927 0.045061
vt 0.299026 0.346516
vt 0.008569 0.346516
vt 0.008569 0.056059
vt 0.299026 0.056060
vt 0.684673 0.664037
vt 0.362651 0.664036
vt 0.362652 0.342015
vt 0.684673 0.342015
vt 0.691546 0.677988
vt 0.355777 0.677988
vt 0.355778 0.342218
vt 0.691547 0.342219
vt 0.320989 0.331373
vt 0.018355 0.331372
vt 0.018355 0.028738
vt 0.320989 0.028739
vt 0.307468 0.333893
vt 0.025525 0.333893
vt 0.025525 0.051949
vt 0.307468 0.051949
vt 0.334276 0.341783
vt 0.023853 0.341783
vt 0.023853 0.031360
vt 0.334276 0.031360
vt 0.275480 0.308982
vt 0.078281 0.308982
vt 0.078281 0.111783
vt 0.275480 0.111783
vt 0.678104 0.668878
vt 0.351627 0.668878
vt 0.351627 0.342400
vt 0.678104 0.342401
vt 0.662806 0.659930
vt 0.362294 0.659929
vt 0.362294 0.359417
vt 0.662806 0.359418
vt 0.319155 0.333871
vt 0.038974 0.333871
vt 0.038974 0.053690
vt 0.319155 0.053690
vt 0.328029 0.346648
vt 0.012770 0.346648
vt 0.012770 0.031389
vt 0.328029 0.031389
vt 0.681979 0.652844
vt 0.363889 0.652844
vt 0.363889 0.334754
vt 0.681979 0.334755
vt 0.670524 0.644696
vt 0.383149 0.644696
vt 0.383150 0.357321
vt 0.670525 0.357321
vt 0.331329 0.337381
vt 0.036324 0.337381
vt 0.036324 0.042376
vt 0.331329 0.042376
vt 0.676166 0.639953
vt 0.388751 0.639953
vt 0.388752 0.352539
vt 0.676166 0.352539
vt 0.624975 0.500000
vt 0.500000 0.500000
vt 0.500000 0.375025
vt 0.624975 0.375025
vt 0.336738 0.345104
vt 0.005781 0.345104
vt 0.005781 0.014147
vt 0.336738 0.014147
vt 0.345880 0.336917
vt 0.034473 0.336917
vt 0.034473 0.025510
vt 0.345880 0.025510
vt 0.689943 0.656310
vt 0.368362 0.656309
vt 0.368362 0.334728
vt 0.689943 0.334728
vt 0.346759 0.349504
vt 0.010178 0.349503
vt 0.010178 0.012922
vt 0.346759 0.012922
vt 0.010628 0.027493
vt 0.327593 0.027493
vt 0.327593 0.344458
vt 0.010628 0.344458
vt 0.314429 0.336784
vt 0.020617 0.336784
vt 0.020617 0.042972
vt 0.314429 0.042972
vt 0.329447 0.323958
vt 0.024647 0.323958
vt 0.024647 0.019157
vt 0.329447 0.019157
vt 0.333788 0.333788
vt 0.023481 0.333788
vt 0.023481 0.023481
vt 0.333788 0.023481
vt 0.341461 0.341163
vt 0.022158 0.341163
vt 0.022158 0.021860
vt 0.341461 0.021860
vt 0.300845 0.286393
vt 0.056424 0.286392
vt 0.056424 0.041972
vt 0.300845 0.041972
vt 0.326558 0.339819
vt 0.014837 0.339819
vt 0.014837 0.028098
vt 0.326558 0.028098
vt 0.337710 0.336552
vt 0.016385 0.336552
vt 0.016385 0.015227
vt 0.337709 0.015227
vt 0.672866 0.655536
vt 0.368705 0.655536
vt 0.368705 0.351375
vt 0.672866 0.351376
vt 0.686445 0.655556
vt 0.364651 0.655556
vt 0.364651 0.333762
vt 0.686445 0.333762
vt 0.665914 0.664327
vt 0.362957 0.664327
vt 0.362958 0.361370
vt 0.665914 0.361370
vt 0.688748 0.665665
vt 0.359172 0.665665
vt 0.359172 0.336089
vt 0.688748 0.336089
vt 0.669966 0.634614
vt 0.390653 0.634614
vt 0.390653 0.355301
vt 0.669966 0.355301
vt 0.660776 0.650954
vt 0.361746 0.650953
vt 0.361746 0.351924
vt 0.660776 0.351924
vt 0.668488 0.656350
vt 0.360384 0.656350
vt 0.360384 0.348246
vt 0.668488 0.348247
vt 0.670740 0.656883
vt 0.374006 0.656883
vt 0.374006 0.360149
vt 0.670740 0.360149
vt 0.690308 0.659419
vt 0.362507 0.659419
vt 0.362507 0.331618
vt 0.690308 0.331618
vt 0.680732 0.656921
vt 0.362557 0.656921
vt 0.362558 0.338746
vt 0.680732 0.338747
vt 0.315777 0.337141
vt 0.022706 0.337141
vt 0.022707 0.044071
vt 0.315777 0.044071
vt 0.346776 0.322833
vt 0.032980 0.322833
vt 0.032980 0.009038
vt 0.346776 0.009038
vt 0.339200 0.340490
vt 0.015158 0.340489
vt 0.015158 0.016447
vt 0.339201 0.016447
vt 0.674224 0.659507
vt 0.362716 0.659507
vt 0.362717 0.348000
vt 0.674224 0.348000
vt 0.681179 0.656211
vt 0.371635 0.656211
vt 0.371635 0.346666
vt 0.681180 0.346666
vt 0.295404 0.309989
vt 0.033555 0.309989
vt 0.033555 0.048140
vt 0.295404 0.048140
vt 0.339430 0.344192
vt 0.019822 0.344192
vt 0.019822 0.024583
vt 0.339430 0.024584
vt 0.671962 0.647291
vt 0.363522 0.647291
vt 0.363522 0.338851
vt 0.671962 0.338852
vt 0.684241 0.661886
vt 0.363942 0.661886
vt 0.363942 0.341587
vt 0.684241 0.341587
vt 0.349525 0.348534
vt 0.031950 0.348534
vt 0.031950 0.030959
vt 0.349525 0.030959
vt 0.333951 0.334978
vt 0.015775 0.334977
vt 0.015775 0.016801
vt 0.333951 0.016802
vt 0.675070 0.654004
vt 0.373114 0.654004
vt 0.373114 0.352047
vt 0.675070 0.352048
vt 0.696764 0.660552
vt 0.367293 0.660552
vt 0.367293 0.331081
vt 0.696764 0.331081
vt 0.348390 0.351994
vt 0.010862 0.351994
vt 0.010862 0.014466
vt 0.348390 0.014466
vn 0.0000 1.0000 0.0000
usemtl Material.001
s off
f 81/1/1 41/2/1 4/3/1 74/4/1
f 79/5/1 31/6/1 6/7/1 75/8/1
f 61/9/1 32/10/1 9/11/1 57/12/1
f 63/13/1 42/14/1 8/15/1 56/16/1
f 62/17/1 38/18/1 12/19/1 58/20/1
f 80/21/1 37/22/1 10/23/1 76/24/1
f 60/25/1 28/26/1 15/27/1 59/28/1
f 78/29/1 27/30/1 14/31/1 77/32/1
f 51/33/1 29/34/1 20/35/1 49/36/1
f 53/37/1 39/38/1 19/39/1 48/40/1
f 54/41/1 44/42/1 16/43/1 46/44/1
f 52/45/1 34/46/1 17/47/1 47/48/1
f 69/49/1 30/50/1 25/51/1 67/52/1
f 71/53/1 40/54/1 24/55/1 66/56/1
f 70/57/1 35/58/1 23/59/1 65/60/1
f 72/61/1 45/62/1 22/63/1 64/64/1
f 68/65/1 21/66/1 30/67/1 69/68/1
f 50/69/1 18/70/1 29/71/1 51/72/1
f 73/73/1 2/74/1 27/75/1 78/76/1
f 55/77/1 7/78/1 28/79/1 60/80/1
f 67/81/1 25/82/1 35/83/1 70/84/1
f 49/85/1 20/86/1 34/87/1 52/88/1
f 59/89/1 15/90/1 32/91/1 61/92/1
f 77/93/1 14/94/1 31/95/1 79/96/1
f 65/97/1 23/98/1 40/99/1 71/100/1
f 47/101/1 17/102/1 39/103/1 53/104/1
f 75/105/1 6/106/1 37/107/1 80/108/1
f 57/109/1 9/110/1 38/111/1 62/112/1
f 66/113/1 24/114/1 45/115/1 72/116/1
f 48/117/1 19/118/1 44/119/1 54/120/1
f 58/121/1 12/122/1 42/123/1 63/124/1
f 76/125/1 10/126/1 41/127/1 81/128/1
f 11/129/1 48/130/1 54/131/1 43/132/1
f 5/133/1 47/134/1 53/135/1 36/136/1
f 13/137/1 49/138/1 52/139/1 33/140/1
f 1/141/1 50/142/1 51/143/1 26/144/1
f 33/145/1 52/146/1 47/147/1 5/148/1
f 43/149/1 54/150/1 46/151/1 3/152/1
f 36/153/1 53/154/1 48/155/1 11/156/1
f 26/157/1 51/158/1 49/159/1 13/160/1
f 19/161/1 58/162/1 63/163/1 44/164/1
f 17/165/1 57/166/1 62/167/1 39/168/1
f 20/169/1 59/170/1 61/171/1 34/172/1
f 18/173/1 55/174/1 60/175/1 29/176/1
f 29/177/1 60/178/1 59/179/1 20/180/1
f 39/181/1 62/182/1 58/183/1 19/184/1
f 44/185/1 63/186/1 56/187/1 16/188/1
f 34/189/1 61/190/1 57/191/1 17/192/1
f 12/193/1 66/194/1 72/195/1 42/196/1
f 9/197/1 65/198/1 71/199/1 38/200/1
f 15/201/1 67/202/1 70/203/1 32/204/1
f 7/205/1 68/206/1 69/207/1 28/208/1
f 42/209/1 72/210/1 64/211/1 8/212/1
f 32/213/1 70/214/1 65/215/1 9/216/1
f 38/217/1 71/218/1 66/219/1 12/220/1
f 28/221/1 69/222/1 67/223/1 15/224/1
f 24/225/1 76/226/1 81/227/1 45/228/1
f 23/229/1 75/230/1 80/231/1 40/232/1
f 25/233/1 77/234/1 79/235/1 35/236/1
f 21/237/1 73/238/1 78/239/1 30/240/1
f 30/241/1 78/242/1 77/243/1 25/244/1
f 40/245/1 80/246/1 76/247/1 24/248/1
f 35/249/1 79/250/1 75/251/1 23/252/1
f 45/253/1 81/254/1 74/255/1 22/256/1
